<svg xmlns="http://www.w3.org/2000/svg" xmlns:xlink="http://www.w3.org/1999/xlink" width="121.733" height="104.767" viewBox="0 0 121.733 104.767">
  <defs>
    <clipPath id="clip-path">
      <path id="Path_2" data-name="Path 2" d="M64,51.859h96.676v94.678H64Zm0,0" transform="translate(-64 -51.859)"/>
    </clipPath>
    <clipPath id="clip-path-2">
      <path id="Path_4" data-name="Path 4" d="M92.285,72.746h40.481v76.461H92.285Zm0,0" transform="translate(-92.285 -72.746)"/>
    </clipPath>
    <clipPath id="clip-path-3">
      <path id="Path_6" data-name="Path 6" d="M22.488,122.668H144.222V156.4H22.488Zm0,0" transform="translate(-22.488 -122.668)"/>
    </clipPath>
  </defs>
  <g id="brand-logo" transform="translate(-22.488 -51.859)">
    <g id="Group_1" data-name="Group 1" transform="translate(34.986 51.859)" clip-path="url(#clip-path)">
      <path id="Path_1" data-name="Path 1" d="M160.6,75.35v71.187H64.047V75.35l48.277-23.49Zm0,0" transform="translate(-64 -51.859)" fill="#404040"/>
    </g>
    <g id="Group_2" data-name="Group 2" transform="translate(63.165 72.974)" clip-path="url(#clip-path-2)">
      <path id="Path_3" data-name="Path 3" d="M114.289,77.273c-4.016,0-7.269,5.641-7.269,12.594a20.025,20.025,0,0,0,.976,6.3,8.488,8.488,0,0,0,.481,1.254,11.572,11.572,0,0,0,1.687,2.828c1.9,2.9,2.879,4.1,2.77,8.7-.137,5.676-1.758,35.086-1.758,35.086s-.68,4.988,3.25,5.125,2.7-6.621,2.7-6.621-1.555-31.656-1.395-35.891c.114-3.085,1.856-4.671,3.454-7.5a14.172,14.172,0,0,0,1.668-3.875l.058-.18v-.035a20.4,20.4,0,0,0,.656-5.2C121.566,82.914,118.3,77.273,114.289,77.273Zm1.758,22.774c-3.93,0-7.121-4.719-7.121-10.527,0-4.617,2.008-8.535,4.8-9.965-2.161,1.891-3.586,5.48-3.586,9.6,0,5.52,2.609,10.09,6.015,10.887Zm14.023,48.527c-3.656-.121-3.031-4.613-3.031-4.613s1.07-18.523,1.481-27.555a9.863,9.863,0,0,1-4.254-3.668c-2.02-3.543,2.027-29.074,2.722-34.519a11.024,11.024,0,0,1,1.52-4.66c.941-1.473,2.4-.645,2.418,1.086l.508,42.234c.355,9.594,1.168,25.734,1.168,25.734s1.132,6.075-2.532,5.953ZM104.785,81.266v18.48a2.82,2.82,0,0,1-.34,1.332,10.9,10.9,0,0,1-.715,1.363c-1.492,2.633-3.726,4.118-3.839,7-.148,3.957,1.3,33.543,1.3,33.543s1.133,6.317-2.523,6.188-3.035-4.8-3.035-4.8,1.512-27.477,1.637-32.781c.105-4.3-1.43-5.418-3.215-8.133a10.229,10.229,0,0,1-1.246-2.266,4.714,4.714,0,0,1-.527-2.347V80.863c0-.605.43-1.43.965-1.43s.965.82.965,1.84V94.852a.687.687,0,0,0,.684.688.694.694,0,0,0,.688-.687V81.266c0-1.02.5-1.84,1.109-1.84s1.113.82,1.113,1.84V94.852a.686.686,0,0,0,.219.457.675.675,0,0,0,.469.184.689.689,0,0,0,.688-.641V81.266c0-1.02.5-1.84,1.113-1.84s1.113.82,1.113,1.84V94.852a.66.66,0,0,0,.2.484.653.653,0,0,0,.485.2.694.694,0,0,0,.687-.687V81.266c0-1.02.449-1.84,1-1.84S104.785,80.246,104.785,81.266Zm0,0" transform="translate(-92.285 -72.746)" fill="#fff"/>
    </g>
    <g id="Group_3" data-name="Group 3" transform="translate(22.488 122.896)" clip-path="url(#clip-path-3)">
      <path id="Path_5" data-name="Path 5" d="M43.174,122.672l-4.118,7.617v16.617H22.488l8.464-12.3-8.464-11.933Zm101.048,0H123.541l4.11,7.617v16.617h16.571l-8.464-12.3ZM40.51,156.4h85.41V132.152H40.51Zm0,0" transform="translate(-22.488 -122.668)" fill="#ff9946"/>
    </g>
    <g id="Group_5" data-name="Group 5" transform="translate(66.517 138.609)">
      <g id="Group_4" data-name="Group 4">
        <path id="Path_7" data-name="Path 7" d="M2.719-9.187A2.008,2.008,0,0,0,3.3-7.812,5.868,5.868,0,0,0,4.7-6.7q.844.469,1.656.969A5.44,5.44,0,0,1,7.766-4.516a2.5,2.5,0,0,1,.578,1.594A2.835,2.835,0,0,1,7.328-.672,4.062,4.062,0,0,1,4.578.2,9.433,9.433,0,0,1,1.156-.453v-.8a6.785,6.785,0,0,0,2.922.859A2.783,2.783,0,0,0,5.953-.969a2.081,2.081,0,0,0,.672-1.641,1.8,1.8,0,0,0-.562-1.281,5.241,5.241,0,0,0-1.344-1C4.2-5.18,3.672-5.477,3.141-5.781A4.53,4.53,0,0,1,1.8-6.922,2.651,2.651,0,0,1,1.25-8.609a2.575,2.575,0,0,1,.875-1.859,3.612,3.612,0,0,1,2.625-.859,10.5,10.5,0,0,1,2.891.531L7.469-9.656a10.237,10.237,0,0,0-3.875-.969A1.452,1.452,0,0,0,2.719-9.187Zm0,0" transform="translate(-1.156 11.328)"/>
      </g>
    </g>
    <g id="Group_7" data-name="Group 7" transform="translate(71.018 138.812)">
      <g id="Group_6" data-name="Group 6">
        <path id="Path_8" data-name="Path 8" d="M13.375-11.125H14.2L10.047.25H9.781L7.2-6.641,4.688.25H4.422L.172-11.125H2L4.953-2.016,6.844-7.625l-1.312-3.5H7.359l2.953,9.109Zm0,0" transform="translate(-0.172 11.125)"/>
      </g>
    </g>
    <g id="Group_9" data-name="Group 9" transform="translate(83.446 138.812)">
      <g id="Group_8" data-name="Group 8">
        <path id="Path_9" data-name="Path 9" d="M3.063-11.125V0H1.516V-11.125Zm0,0" transform="translate(-1.516 11.125)"/>
      </g>
    </g>
    <g id="Group_11" data-name="Group 11" transform="translate(84.353 138.812)">
      <g id="Group_10" data-name="Group 10">
        <path id="Path_10" data-name="Path 10" d="M5.313,0H3.672V-10.312a4.7,4.7,0,0,0-1.141-.141L.266-9.922l-.094-1.2H8.813l-.078,1.2-2.281-.531a4.675,4.675,0,0,0-1.141.141Zm0,0" transform="translate(-0.172 11.125)"/>
      </g>
    </g>
    <g id="Group_13" data-name="Group 13" transform="translate(90.06 138.609)">
      <g id="Group_12" data-name="Group 12">
        <path id="Path_11" data-name="Path 11" d="M6.563-11.328a4.871,4.871,0,0,1,3.609,1.437,5.418,5.418,0,0,1,1.438,4,6.744,6.744,0,0,1-.578,2.875A4.692,4.692,0,0,1,9.547-1.109,6.584,6.584,0,0,1,5.578.2,4.81,4.81,0,0,1,1.984-1.25a5.508,5.508,0,0,1-1.406-4A7.174,7.174,0,0,1,.953-7.641a5.041,5.041,0,0,1,.984-1.75,5.653,5.653,0,0,1,1.422-1.125A6.583,6.583,0,0,1,6.563-11.328ZM3.188-1.922A3,3,0,0,0,4.359-.766a3.486,3.486,0,0,0,1.7.406A3.09,3.09,0,0,0,7.781-.844,3.357,3.357,0,0,0,8.969-2.109a7.036,7.036,0,0,0,.859-3.406,6.469,6.469,0,0,0-.891-3.594,3.646,3.646,0,0,0-3.281-1.516A4.481,4.481,0,0,0,3.188-8.656a5.947,5.947,0,0,0-.844,3.141A7,7,0,0,0,3.188-1.922Zm0,0" transform="translate(-0.578 11.328)"/>
      </g>
    </g>
  </g>
</svg>