<svg xmlns="http://www.w3.org/2000/svg" viewBox="0 0 31 31">
  <path id="Path_16" data-name="Path 16" d="M22.833,23.375l-.443.275V21.23l.443-.275Zm3.646-4.684-.442.275v2.419l.442-.276ZM31,7.979V24.194L18.406,32,5.167,24.97V8.756L17.782,1,31,7.979ZM15.7,5.5l9.07,4.509,2.2-1.292-9.188-4.5Zm1.093,10.854L7.75,11.792v11.54l9.042,4.436Zm3.9-3.958L11.887,7.834,9.246,9.48l8.86,4.454L20.694,12.4Zm7.723-1.329L25.833,12.59v3.926l-3.875,2.379V14.87l-2.583,1.519V28.172l9.042-5.615ZM22.078,21.425l-.451.28v2.414l.451-.275ZM23.893,20.3l-.444.276v2.419l.444-.276V20.3Zm.741-.461-.443.275v2.419l.443-.275Zm.754-.468-.452.28v2.419l.452-.28ZM3.875,13.682H1.292v1.409H3.875Zm0,2.818H0v1.409H3.875Zm0,2.818H1.292v1.409H3.875Z" transform="translate(0 -1)"/>
</svg>